<svg version="1.1" id="Layer_1" x="0px" y="0px" width="100%" viewBox="0 0 2831 3682" enable-background="new 0 0 2831 3682" xmlns="http://www.w3.org/2000/svg">
  <defs></defs>
  <path fill="#F9B5B8" opacity="1.000000" stroke="none" d="
M2832.378174,761.843811 
	C2832.378174,761.843811 2833.206299,761.741455 2833.603027,761.870728 
	C2834.000000,769.385803 2834.000000,776.771667 2834.000000,785.078735 
	C2834.000000,786.000000 2833.128906,786.082458 2832.572266,785.175659 
	C2832.136475,776.793884 2832.257324,769.318848 2832.378174,761.843811 
z"></path>
  <path fill="#ED1C24" opacity="1.000000" stroke="none" d="
M2832.234375,761.073364 
	C2832.257324,769.318848 2832.136475,776.793884 2832.135254,785.193848 
	C2830.979492,803.599060 2825.006104,819.909912 2819.010254,836.073364 
	C2801.162354,884.185425 2778.634033,930.176575 2754.507568,975.402649 
	C2740.262207,1002.106323 2725.685547,1028.635620 2711.711426,1055.479736 
	C2707.943115,1062.718262 2702.761719,1067.225464 2695.486572,1070.564453 
	C2666.336670,1083.942993 2636.073975,1093.841675 2604.601074,1099.779419 
	C2595.951904,1101.411133 2589.644287,1105.023804 2583.892578,1111.700317 
	C2560.246338,1139.148438 2536.082520,1166.150513 2512.139648,1193.343384 
	C2488.857422,1219.785767 2465.642334,1246.287231 2442.343262,1272.714722 
	C2411.128174,1308.120728 2379.832275,1343.455322 2348.624756,1378.867676 
	C2320.496338,1410.785889 2292.471680,1442.795654 2264.341553,1474.712280 
	C2237.966797,1504.637085 2211.619629,1534.587280 2185.017334,1564.308716 
	C2178.767578,1571.291260 2175.558838,1578.493164 2175.399658,1588.215820 
	C2175.074463,1608.100464 2173.128418,1627.955566 2171.985352,1647.830688 
	C2170.479004,1674.014771 2169.242676,1700.214844 2167.632080,1726.392212 
	C2166.043457,1752.212891 2164.027344,1778.007080 2162.399170,1803.825562 
	C2161.312256,1821.062500 2160.612061,1838.323486 2159.671387,1855.570068 
	C2158.514648,1876.779541 2157.279297,1897.984619 2156.093750,1919.192505 
	C2154.611084,1945.709595 2153.281738,1972.236206 2151.630859,1998.742798 
	C2150.043457,2024.230469 2147.974609,2049.688477 2146.412598,2075.177490 
	C2145.254395,2094.077148 2144.688477,2113.012695 2143.639893,2131.920166 
	C2142.555664,2151.463379 2141.141113,2170.988037 2139.995361,2190.528320 
	C2139.120361,2205.447510 2138.588135,2220.387451 2137.637695,2235.301270 
	C2135.992676,2261.118652 2134.040283,2286.916504 2132.414795,2312.734863 
	C2131.413086,2328.643799 2130.810547,2344.577637 2129.971924,2360.497070 
	C2128.749756,2383.702637 2127.266113,2406.896973 2126.349854,2430.114014 
	C2126.064209,2437.345459 2126.665283,2444.734375 2127.873291,2451.880127 
	C2132.787109,2480.947266 2153.550293,2499.216553 2183.105469,2501.747070 
	C2206.688721,2503.765869 2228.541992,2497.267090 2250.108154,2489.178955 
	C2289.233887,2474.505371 2325.370850,2453.878906 2360.654785,2431.880371 
	C2408.941650,2401.774170 2456.661377,2370.757812 2504.583008,2340.067627 
	C2511.026367,2335.941162 2517.132812,2331.289551 2523.569092,2327.150879 
	C2536.117920,2319.081055 2549.551758,2320.265381 2562.905762,2324.354980 
	C2572.615967,2327.328369 2576.472168,2341.129639 2575.094238,2350.299316 
	C2573.135254,2363.334229 2568.106689,2375.218262 2561.752441,2386.592773 
	C2541.701416,2422.484375 2516.683594,2454.890625 2490.180420,2486.078613 
	C2467.584961,2512.667725 2444.343994,2538.774414 2420.271240,2564.029541 
	C2359.200195,2628.099609 2291.081543,2683.854980 2217.078125,2732.344727 
	C2174.307617,2760.369629 2128.947754,2783.001221 2079.362061,2796.734131 
	C2048.529297,2805.273438 2017.142090,2808.677490 1985.546143,2805.895996 
	C1937.668579,2801.680664 1905.918701,2778.320312 1889.918579,2727.289795 
	C1883.242676,2705.997314 1878.720215,2684.209717 1876.401855,2662.053955 
	C1874.330688,2642.262451 1873.187744,2622.373291 1871.664917,2602.524902 
	C1867.556641,2548.976807 1870.905762,2495.365479 1870.488525,2441.786377 
	C1870.265747,2413.197266 1871.769531,2384.597412 1872.301636,2355.999023 
	C1873.069458,2314.739014 1873.579712,2273.473877 1874.359863,2232.213867 
	C1874.869019,2205.281250 1875.671021,2178.354004 1876.325073,2151.424072 
	C1877.003540,2123.494385 1877.659058,2095.564453 1878.329590,2067.634521 
	C1878.992310,2040.037842 1879.584351,2012.439087 1880.355347,1984.845459 
	C1880.856567,1966.909302 1881.640747,1948.981079 1882.254272,1931.047852 
	C1882.367310,1927.741333 1882.270264,1924.427612 1882.270264,1919.114014 
	C1875.261353,1926.206665 1869.268188,1932.023315 1863.555054,1938.103027 
	C1850.802490,1951.673706 1838.168701,1965.356323 1825.524536,1979.028320 
	C1801.815918,2004.664429 1778.106445,2030.300049 1754.449829,2055.984131 
	C1735.749023,2076.287598 1716.981323,2096.531982 1698.507080,2117.040283 
	C1677.817871,2140.007324 1657.129517,2162.986816 1636.963135,2186.410889 
	C1586.871460,2244.593994 1536.417725,2302.485352 1487.365967,2361.537598 
	C1445.946655,2411.400879 1406.096558,2462.576172 1365.943237,2513.479004 
	C1347.406250,2536.978760 1330.701660,2561.961182 1311.592896,2584.964600 
	C1268.443115,2636.909424 1218.526489,2681.753174 1163.834839,2721.309814 
	C1131.437866,2744.741699 1097.989868,2766.539062 1062.387085,2784.795654 
	C1041.673462,2795.417725 1020.476135,2805.122803 997.131104,2808.692383 
	C991.900024,2809.492188 986.580566,2810.316895 981.319763,2810.214111 
	C959.963318,2809.798096 945.106140,2799.119141 938.327393,2777.900879 
	C935.032166,2767.586670 934.162292,2756.497314 932.185303,2743.998535 
	C931.594116,2720.189453 934.254578,2698.505371 939.444702,2677.099121 
	C949.244568,2636.680176 966.629517,2599.455566 987.628418,2563.834961 
	C997.569702,2546.971191 1008.339355,2530.595947 1019.135498,2513.517334 
	C1043.576538,2478.209229 1070.486938,2445.690918 1099.611938,2415.059570 
	C1129.914551,2383.189453 1162.622681,2353.875977 1197.633057,2327.255615 
	C1213.221558,2315.402588 1228.896362,2303.326904 1245.860107,2293.690186 
	C1280.546265,2273.985596 1316.153809,2255.905518 1351.333008,2237.064941 
	C1363.556152,2230.518799 1375.858398,2224.480225 1385.326904,2213.431641 
	C1405.434204,2189.968262 1426.476562,2167.306396 1447.137817,2144.318115 
	C1466.689941,2122.563721 1486.228149,2100.797119 1505.802979,2079.063232 
	C1528.492920,2053.870605 1551.212646,2028.705078 1573.926147,2003.533813 
	C1593.745605,1981.569702 1613.591919,1959.630005 1633.394409,1937.650635 
	C1656.087158,1912.463257 1678.702637,1887.206299 1701.429443,1862.049683 
	C1724.383789,1836.641113 1747.479126,1811.359741 1770.427979,1785.946167 
	C1793.816895,1760.045166 1817.107178,1734.055054 1840.431274,1708.095581 
	C1855.312744,1691.532593 1870.227051,1674.998169 1884.977417,1658.319336 
	C1886.594604,1656.490723 1887.890869,1653.874756 1888.189697,1651.480957 
	C1889.009033,1644.915527 1889.459595,1638.280029 1889.626221,1631.661377 
	C1890.388062,1601.407104 1890.996948,1571.148926 1891.671021,1540.892334 
	C1892.330444,1511.301758 1893.010742,1481.711548 1893.666382,1452.120850 
	C1894.344116,1421.530762 1894.991943,1390.940308 1895.673096,1360.350464 
	C1896.324463,1331.092773 1897.019043,1301.836182 1897.663330,1272.578369 
	C1898.351440,1241.322144 1898.981689,1210.064697 1899.676514,1178.808594 
	C1900.312012,1150.217163 1901.086182,1121.628662 1901.644165,1093.035767 
	C1902.397095,1054.449219 1902.993042,1015.859741 1903.681519,977.272034 
	C1903.764648,972.616333 1904.092529,967.964233 1904.132690,963.308899 
	C1904.151855,961.085083 1903.762085,958.857849 1903.516846,956.188843 
	C1890.502563,958.317017 1878.086792,960.318298 1865.686523,962.410828 
	C1864.072510,962.683167 1862.538208,963.426392 1860.056641,963.823975 
	C1856.835449,963.956543 1854.492432,964.053101 1852.218506,964.500793 
	C1782.352051,978.253723 1714.036133,997.525940 1647.401367,1022.622559 
	C1631.589722,1028.577759 1616.183350,1035.608765 1599.955078,1042.218628 
	C1598.848633,1042.895142 1598.377808,1043.497925 1597.926147,1044.021240 
	C1597.945435,1043.941895 1598.108398,1043.955811 1597.345581,1043.800049 
	C1555.924316,1061.747925 1514.965698,1079.212524 1474.687500,1098.126099 
	C1430.124146,1119.052002 1387.119873,1143.033203 1344.875000,1168.330078 
	C1276.023682,1209.559326 1208.874756,1253.264526 1148.122925,1306.022949 
	C1137.140137,1315.560791 1127.067505,1326.302002 1117.575562,1337.347778 
	C1110.954346,1345.052612 1113.104980,1350.972412 1122.334351,1355.385254 
	C1124.418579,1356.381836 1126.672119,1357.411743 1128.920166,1357.611694 
	C1139.465820,1358.548950 1150.061523,1360.068481 1160.593262,1359.767944 
	C1179.809204,1359.219482 1199.011963,1357.777344 1218.184326,1356.255127 
	C1239.324097,1354.576782 1260.396118,1351.938843 1281.554565,1350.659302 
	C1289.313843,1350.190186 1297.476562,1351.550171 1305.015991,1353.651611 
	C1312.536865,1355.747803 1313.700806,1360.356079 1308.946289,1366.520020 
	C1303.645630,1373.392212 1296.991089,1378.833252 1288.650757,1381.967163 
	C1281.817383,1384.534668 1275.090576,1387.385376 1267.549072,1390.078125 
	C1242.868286,1399.083984 1218.926147,1408.047485 1195.059937,1417.208252 
	C1188.288208,1419.807373 1181.737427,1422.982178 1174.293213,1425.932129 
	C1172.957153,1426.671631 1172.413208,1427.371948 1171.943848,1428.087036 
	C1172.018433,1428.101929 1172.087036,1427.965942 1171.414795,1427.423340 
	C1168.507690,1427.527100 1166.220947,1428.033203 1164.045654,1428.840210 
	C1091.199829,1455.863037 1017.261475,1479.560181 942.663330,1501.201660 
	C927.716797,1505.537720 912.509827,1509.378784 897.164551,1511.832275 
	C879.456848,1514.663818 867.074768,1504.451050 865.887085,1486.694336 
	C865.052795,1474.221313 865.109497,1461.590210 866.005249,1449.118530 
	C868.628296,1412.596436 876.366821,1377.003174 886.779297,1341.948120 
	C888.837219,1335.020142 890.347168,1327.929443 892.577026,1320.461426 
	C895.313171,1314.477295 897.855896,1309.040283 899.810425,1303.399536 
	C937.059998,1195.895020 994.868164,1101.314331 1076.248047,1021.378784 
	C1111.540039,986.713074 1149.901855,955.880432 1190.502441,927.760132 
	C1276.450439,868.231995 1367.853638,818.353577 1462.621460,774.484436 
	C1575.280273,722.333313 1691.568970,680.343323 1812.011108,650.013428 
	C1815.129028,649.228271 1818.036011,647.605835 1821.041382,646.373901 
	C1835.665161,643.420471 1850.319458,640.609253 1864.906860,637.485596 
	C1901.266968,629.699707 1937.916748,623.798157 1974.868286,619.610901 
	C2009.887573,615.642578 2044.988525,613.224731 2080.225342,613.748413 
	C2108.925049,614.174866 2136.990479,617.980286 2163.977539,628.951416 
	C2191.869629,640.290466 2208.247070,660.813110 2216.149902,689.093079 
	C2221.363037,707.747192 2223.876465,726.842773 2224.204834,746.123291 
	C2224.545166,766.092651 2224.301270,786.094177 2223.563721,806.054016 
	C2222.669189,830.260803 2221.070557,854.443420 2219.625732,878.627502 
	C2218.418945,898.826721 2217.039062,919.016052 2215.656494,939.204346 
	C2213.798340,966.334839 2211.743408,993.452454 2210.008789,1020.590698 
	C2208.992432,1036.496460 2208.439697,1052.431885 2207.670166,1068.353394 
	C2206.547852,1091.559326 2205.349121,1114.761963 2204.311768,1137.971558 
	C2203.347168,1159.544922 2202.306396,1181.119385 2201.738037,1202.704834 
	C2200.854248,1236.287964 2200.337158,1269.880859 2199.679688,1303.469849 
	C2199.622314,1306.394531 2199.672607,1309.321411 2199.672607,1314.967773 
	C2208.220947,1305.865356 2215.190918,1298.584473 2222.004395,1291.160156 
	C2238.413086,1273.280396 2254.726318,1255.313232 2271.119385,1237.418945 
	C2291.106934,1215.601074 2311.149658,1193.833618 2331.144531,1172.021973 
	C2347.768066,1153.887573 2364.349854,1135.714722 2380.961914,1117.569458 
	C2400.716797,1095.990845 2420.488770,1074.427612 2440.245117,1052.849976 
	C2456.633789,1034.950562 2473.025879,1017.053955 2489.388428,999.130554 
	C2508.439209,978.263000 2527.503418,957.407166 2546.481201,936.473389 
	C2566.350342,914.556396 2586.128662,892.557251 2605.937500,870.585449 
	C2622.406982,852.317566 2638.728516,833.914307 2655.357910,815.793518 
	C2676.718750,792.516724 2697.852295,768.980103 2722.110107,748.591003 
	C2737.479736,735.672607 2754.848877,727.022583 2775.266357,725.902344 
	C2786.297852,725.296997 2797.278564,726.374939 2807.617432,730.394897 
	C2821.242188,735.692444 2830.458008,744.997131 2832.234375,761.073364 
z"></path>
  <path fill="#293891" opacity="1.000000" stroke="none" d="
M1820.701416,645.712036 
	C1818.036011,647.605835 1815.129028,649.228271 1812.011108,650.013428 
	C1691.568970,680.343323 1575.280273,722.333313 1462.621460,774.484436 
	C1367.853638,818.353577 1276.450439,868.231995 1190.502441,927.760132 
	C1149.901855,955.880432 1111.540039,986.713074 1076.248047,1021.378784 
	C994.868164,1101.314331 937.059998,1195.895020 899.810425,1303.399536 
	C897.855896,1309.040283 895.313171,1314.477295 891.984985,1320.881592 
	C882.520813,1332.055420 874.066589,1342.316895 865.718689,1352.664185 
	C805.508728,1427.295288 749.047729,1504.649780 696.527954,1584.893799 
	C650.946899,1654.536133 608.498901,1726.028198 569.994385,1799.803345 
	C532.240723,1872.139893 499.391113,1946.587280 475.571564,2024.831543 
	C458.883850,2079.648193 446.414429,2135.384277 442.689331,2192.549072 
	C439.662140,2239.003906 440.355774,2285.608398 448.260620,2331.798828 
	C456.010681,2377.084961 469.331451,2420.322998 493.871552,2459.594971 
	C521.645264,2504.041992 559.271851,2537.063232 607.421265,2558.045654 
	C644.870178,2574.365479 684.239990,2581.036621 724.789490,2581.572510 
	C737.725769,2581.743652 750.705627,2581.163574 763.614441,2580.224121 
	C780.483643,2578.996338 797.436829,2577.925049 814.118591,2575.294189 
	C879.098083,2565.045654 941.541443,2545.903320 1002.051636,2520.254150 
	C1007.514404,2517.938232 1013.168396,2516.073486 1018.733643,2513.999268 
	C1008.339355,2530.595947 997.569702,2546.971191 987.628418,2563.834961 
	C966.629517,2599.455566 949.244568,2636.680176 939.444702,2677.099121 
	C934.254578,2698.505371 931.594116,2720.189453 932.032715,2743.165527 
	C914.543945,2751.670654 897.274902,2759.428711 879.839417,2766.792725 
	C819.282410,2792.370361 756.615906,2810.912354 691.732910,2821.463867 
	C670.815430,2824.865479 649.594055,2827.049072 628.427490,2828.106934 
	C600.558105,2829.500000 572.524841,2830.805664 544.704651,2829.375244 
	C470.977631,2825.584229 399.903076,2810.141602 334.076599,2775.258301 
	C266.722260,2739.564697 214.455444,2688.404053 177.544800,2621.553223 
	C149.436356,2570.644043 131.756088,2516.166992 122.097672,2459.085693 
	C118.120514,2435.580566 116.199966,2411.714355 113.707542,2387.974121 
	C109.977745,2352.448730 110.770256,2316.767090 112.620415,2281.243652 
	C114.794846,2239.494629 120.849327,2198.114014 129.097427,2157.061523 
	C148.383148,2061.072754 180.289642,1969.266357 220.677765,1880.315674 
	C254.704636,1805.374756 295.010773,1733.796143 338.525482,1663.994019 
	C397.930817,1568.701904 463.229309,1477.554077 533.637268,1390.155518 
	C579.506104,1333.217896 626.677856,1277.307861 674.157532,1221.698730 
	C700.701904,1190.609619 728.769958,1160.797363 756.698975,1130.921509 
	C782.160278,1103.685181 807.896057,1076.672974 834.322754,1050.378052 
	C911.500793,973.584900 992.999817,901.664185 1079.165894,835.057251 
	C1138.991699,788.811523 1200.477417,745.004517 1265.748413,706.686707 
	C1327.813599,670.250977 1391.796387,637.707092 1459.250488,612.368103 
	C1505.364258,595.045593 1552.483765,581.095398 1601.129150,572.832031 
	C1626.412231,568.537109 1651.976685,566.412231 1677.556519,568.456787 
	C1736.188232,573.143311 1785.019897,596.664490 1820.701416,645.712036 
z"></path>
  <path fill="#293891" opacity="1.000000" stroke="none" d="
M1860.056641,963.823975 
	C1849.582153,1014.437805 1831.698975,1062.669678 1810.339478,1109.687866 
	C1779.851807,1176.799683 1742.249268,1239.905518 1702.307007,1301.707153 
	C1665.249268,1359.045898 1625.491455,1414.459351 1582.165527,1467.190430 
	C1551.160278,1504.926636 1518.981934,1541.712524 1486.854126,1578.509644 
	C1445.002197,1626.444214 1400.250854,1671.670166 1354.477783,1715.800415 
	C1282.559204,1785.138306 1207.016846,1850.232666 1123.470581,1905.454224 
	C1096.247437,1923.447876 1068.020630,1939.629639 1037.322021,1951.262573 
	C995.475525,1967.119995 957.712952,1959.953979 923.549866,1931.937378 
	C904.402405,1916.234985 889.480957,1897.464722 883.132629,1872.851196 
	C878.454346,1854.713135 879.729553,1836.581421 883.034241,1818.518677 
	C889.525330,1783.039917 904.588257,1750.944946 922.494873,1719.987305 
	C947.082764,1677.478638 977.545776,1639.208008 1008.368530,1601.243164 
	C1045.515747,1555.488281 1085.390869,1512.169312 1127.589722,1471.023560 
	C1142.113647,1456.862183 1157.135376,1443.211426 1172.008301,1428.646729 
	C1172.087036,1427.965942 1172.018433,1428.101929 1172.626221,1428.009033 
	C1173.851196,1427.241821 1174.468262,1426.567505 1175.085327,1425.893066 
	C1181.737427,1422.982178 1188.288208,1419.807373 1195.059937,1417.208252 
	C1218.926147,1408.047485 1242.868286,1399.083984 1267.452881,1390.816528 
	C1265.815796,1397.100952 1263.548096,1402.631836 1261.190552,1408.124268 
	C1256.212524,1419.722290 1251.042725,1431.240723 1246.247314,1442.913330 
	C1244.080444,1448.187622 1242.025391,1454.208496 1247.536133,1458.535156 
	C1252.984863,1462.813599 1258.578857,1459.696167 1263.089844,1456.276978 
	C1274.722412,1447.459595 1286.957153,1439.140259 1297.248779,1428.909302 
	C1322.019653,1404.284424 1346.106201,1378.949829 1369.940430,1353.408569 
	C1409.204468,1311.332153 1445.632690,1266.848022 1480.392700,1220.997192 
	C1521.430908,1166.865356 1559.566284,1110.752686 1594.786133,1052.667358 
	C1596.371216,1050.053101 1597.022217,1046.872559 1598.108398,1043.955811 
	C1598.108398,1043.955811 1597.945435,1043.941895 1598.589111,1044.256836 
	C1599.685425,1043.762695 1600.138062,1042.953857 1600.590576,1042.144897 
	C1616.183350,1035.608765 1631.589722,1028.577759 1647.401367,1022.622559 
	C1714.036133,997.525940 1782.352051,978.253723 1852.218506,964.500793 
	C1854.492432,964.053101 1856.835449,963.956543 1860.056641,963.823975 
z"></path>
  <path fill="#FEFEFE" opacity="1.000000" stroke="none" d="
M1599.955078,1042.218628 
	C1600.138062,1042.953857 1599.685425,1043.762695 1598.569824,1044.336182 
	C1598.377808,1043.497925 1598.848633,1042.895142 1599.955078,1042.218628 
z"></path>
  <path fill="#FFFFFF" opacity="1.000000" stroke="none" d="
M1174.293213,1425.932251 
	C1174.468262,1426.567505 1173.851196,1427.241821 1172.551514,1427.994141 
	C1172.413208,1427.371948 1172.957153,1426.671631 1174.293213,1425.932251 
z"></path>
</svg>